<svg xmlns="http://www.w3.org/2000/svg" viewBox="0 0 512 512"><defs><linearGradient id="mk" x1="0" y1="0" x2="0" y2="1"><stop offset="0" stop-color="#F4F1EA"/><stop offset="1" stop-color="#9AA4AB"/></linearGradient></defs><rect width="512" height="512" rx="0" ry="0" fill="#05161B"/><g transform="translate(46.08,166.25) scale(0.84136) translate(0,189.0) scale(0.1,-0.1)"><path d="M80 1751 c0 -59 0 -59 363 -64 452 -7 579 -24 852 -114 433 -143 703
-335 1138 -809 505 -551 770 -708 1167 -691 316 13 598 183 843 510 220 292
409 771 470 1190 6 37 6 37 -2414 37 l-2419 0 0 -59z" fill="url(#mk)"/><path d="M83 1750 c0 -36 2 -50 4 -32 2 17 2 47 0 65 -2 17 -4 3 -4 -33z" fill="#2FC6B6"/><path d="M2240 973 c25 -26 48 -47 53 -45 4 1 6 -2 5 -7 -2 -5 62 -79 141
-165 502 -544 767 -700 1161 -683 320 13 602 186 851 520 63 85 205 324 197
332 -2 2 -64 -55 -138 -128 -403 -396 -848 -515 -1335 -357 -254 82 -490 217
-840 478 -119 89 -133 97 -95 55z" fill="#2FC6B6"/></g></svg>