<svg xmlns="http://www.w3.org/2000/svg" viewBox="0 0 1205.5 154.6" role="img" aria-label="Saltwater Studio"><g transform="translate(44,38.19999999999999) scale(0.51852) translate(0,189.0) scale(0.1,-0.1)"><path d="M80 1751 c0 -59 0 -59 363 -64 452 -7 579 -24 852 -114 433 -143 703
-335 1138 -809 505 -551 770 -708 1167 -691 316 13 598 183 843 510 220 292
409 771 470 1190 6 37 6 37 -2414 37 l-2419 0 0 -59z" fill="#0C3B45"/><path d="M83 1750 c0 -36 2 -50 4 -32 2 17 2 47 0 65 -2 17 -4 3 -4 -33z" fill="#2FC6B6"/><path d="M2240 973 c25 -26 48 -47 53 -45 4 1 6 -2 5 -7 -2 -5 62 -79 141
-165 502 -544 767 -700 1161 -683 320 13 602 186 851 520 63 85 205 324 197
332 -2 2 -64 -55 -138 -128 -403 -396 -848 -515 -1335 -357 -254 82 -490 217
-840 478 -119 89 -133 97 -95 55z" fill="#2FC6B6"/></g><g transform="translate(360.741,130.39999999999998) scale(0.06000,-0.06000)"><path d="M606.7003173828125 -21.0599365234375Q510.9810791015625 -21.0599365234375 449.8564758300781 6.02996826171875Q388.73187255859375 33.119873046875 355.08203125 60.20977783203125Q321.43218994140625 87.2996826171875 308.9022216796875 87.2996826171875Q302.61199951171875 87.2996826171875 289.65142822265625 70.53469848632812Q276.69085693359375 53.76971435546875 261.5851745605469 31.76971435546875Q246.4794921875 9.76971435546875 233.04888916015625 -6.995269775390625Q219.6182861328125 -23.76025390625 211.91796875 -23.76025390625Q207.037841796875 -23.76025390625 201.777587890625 -19.675079345703125Q196.517333984375 -15.58990478515625 194.517333984375 -9.2996826171875L115.798095703125 400.845458984375Q115.32806396484375 406.13568115234375 115.53311157226562 409.3407287597656Q115.7381591796875 412.5457763671875 117.67822265625 413.5457763671875Q120.14825439453125 415.5457763671875 123.35330200195312 413.57574462890625Q126.558349609375 411.605712890625 128.4984130859375 407.6656494140625Q203.4605712890625 248.3028564453125 279.7160949707031 158.82177734375Q355.97161865234375 69.3406982421875 433.541015625 32.9605712890625Q511.11041259765625 -3.4195556640625 589.7791748046875 -3.4195556640625Q702.2681274414062 -3.4195556640625 769.6324768066406 59.38958740234375Q836.996826171875 122.19873046875 836.996826171875 239.91796875Q836.996826171875 310.9779052734375 807.0220642089844 371.6025085449219Q777.0473022460938 432.22711181640625 704.91796875 485.0914611816406Q632.7886352539062 537.955810546875 507.0599365234375 583.6151123046875Q352.7791748046875 640.1450805664062 260.78863525390625 706.0804138183594Q168.798095703125 772.0157470703125 128.06781005859375 851.476318359375Q87.3375244140625 930.9368896484375 87.3375244140625 1029.2176513671875Q87.3375244140625 1145.6182861328125 145.32806396484375 1233.6088256835938Q203.318603515625 1321.599365234375 303.70977783203125 1370.7996826171875Q404.1009521484375 1420 531.242919921875 1420Q619.7918090820312 1420 676.80126953125 1397.8753967285156Q733.8107299804688 1375.7507934570312 766.4306030273438 1353.6261901855469Q799.0504760742188 1331.5015869140625 813.400634765625 1331.5015869140625Q824.9810791015625 1331.5015869140625 847.0520629882812 1354.30126953125Q869.123046875 1377.1009521484375 890.1940307617188 1399.900634765625Q911.2650146484375 1422.7003173828125 919.7855224609375 1422.7003173828125Q923.6656494140625 1422.7003173828125 927.2807922363281 1420.3201904296875Q930.8959350585938 1417.9400634765625 932.365966796875 1411.0599365234375L1036.9464111328125 996.4163818359375Q1037.886474609375 991.6561279296875 1037.7113952636719 988.6860961914062Q1037.5363159179688 985.716064453125 1035.0662841796875 983.716064453125Q1033.126220703125 982.716064453125 1029.9211730957031 984.4211120605469Q1026.7161254882812 986.1261596679688 1024.24609375 989.59619140625Q944.1135864257812 1149.2081909179688 866.5978088378906 1239.0488891601562Q789.08203125 1328.8895874023438 709.4574279785156 1365.6246032714844Q629.8328247070312 1402.359619140625 544.40380859375 1402.359619140625Q432.6656494140625 1402.359619140625 359.9669189453125 1332.1703491210938Q287.2681884765625 1261.9810791015625 287.2681884765625 1136.3028564453125Q287.2681884765625 1062.7129516601562 316.3028869628906 1000.3233642578125Q345.33758544921875 937.9337768554688 414.8517761230469 884.5993957519531Q484.365966796875 831.2650146484375 605.804443359375 785.5457763671875Q767.0252685546875 726.605712890625 859.48583984375 660.5205383300781Q951.9464111328125 594.4353637695312 990.6766967773438 518.3848876953125Q1029.406982421875 442.33441162109375 1029.406982421875 351.7034912109375Q1029.406982421875 247.6025390625 979.4211730957031 163.08676147460938Q929.4353637695312 78.57098388671875 834.8438720703125 28.755523681640625Q740.2523803710938 -21.0599365234375 606.7003173828125 -21.0599365234375Z" fill="#05161B"/></g><g transform="translate(429.081,130.39999999999998) scale(0.06000,-0.06000)"><path d="M563.6088256835938 92.47003173828125V100.11041259765625L554.6182861328125 92.119873046875V708.7066650390625Q554.6182861328125 791.8738403320312 521.2791748046875 835.9274597167969Q487.9400634765625 879.9810791015625 422.7823486328125 879.9810791015625Q350.6246337890625 879.9810791015625 316.31549072265625 845.201904296875Q282.00634765625 810.4227294921875 282.00634765625 770.1829833984375V697.041015625Q282.00634765625 652.8296508789062 251.94009399414062 623.7933654785156Q221.87384033203125 594.757080078125 175.3817138671875 594.757080078125Q141.5804443359375 594.757080078125 119.32965087890625 616.2176513671875Q97.078857421875 637.67822265625 97.078857421875 680.4794921875Q97.078857421875 731.7697143554688 136.86434936523438 780.5851745605469Q176.64984130859375 829.400634765625 254.660888671875 861.041015625Q332.67193603515625 892.681396484375 446.05364990234375 892.681396484375Q601.48583984375 892.681396484375 677.906982421875 825.5709838867188Q754.328125 758.4605712890625 754.328125 637.5394287109375V110.681396484375Q754.328125 71.84228515625 767.2129821777344 55.07257080078125Q780.0978393554688 38.3028564453125 799.3375854492188 38.3028564453125Q817.5173950195312 38.3028564453125 831.7524108886719 49.27288818359375Q845.9874267578125 60.242919921875 848.927490234375 83.8233642578125Q849.3975219726562 87.23345947265625 850.8975219726562 88.46847534179688Q852.3975219726562 89.7034912109375 853.8675537109375 89.7034912109375Q856.3375854492188 89.7034912109375 857.3076171875 88.46847534179688Q858.2776489257812 87.23345947265625 858.2776489257812 83.8233642578125Q858.2776489257812 66.65301513671875 842.9921569824219 42.962158203125Q827.7066650390625 19.27130126953125 793.8754272460938 0.9605712890625Q760.044189453125 -17.35015869140625 704.201904296875 -17.35015869140625Q632 -17.35015869140625 597.8044128417969 12.97003173828125Q563.6088256835938 43.29022216796875 563.6088256835938 92.47003173828125ZM48.4984130859375 192.5804443359375Q48.4984130859375 297.15142822265625 135.21923828125 362.7366027832031Q221.9400634765625 428.32177734375 403.8233642578125 428.32177734375Q471.08203125 428.32177734375 514.8659362792969 415.3769836425781Q558.6498413085938 402.43218994140625 596.0189208984375 383.84228515625L589.19873046875 376.9022216796875Q551.9495239257812 394.08203125 512.1356506347656 404.3817138671875Q472.32177734375 414.681396484375 423.123046875 414.681396484375Q338.31549072265625 414.681396484375 293.5016174316406 363.3817138671875Q248.687744140625 312.08203125 248.687744140625 222.441650390625Q248.687744140625 135.09149169921875 291.3218078613281 87.40695190429688Q333.95587158203125 39.722412109375 402.9842529296875 39.722412109375Q450.36279296875 39.722412109375 496.3564758300781 60.727142333984375Q542.3501586914062 81.73187255859375 573.3091430664062 122.1009521484375L583.0693969726562 116.2208251953125Q538.8296508789062 51.17034912109375 462.6545715332031 16.645111083984375Q386.4794921875 -17.880126953125 298.599365234375 -17.880126953125Q186.7791748046875 -17.880126953125 117.6387939453125 40.9400634765625Q48.4984130859375 99.76025390625 48.4984130859375 192.5804443359375Z" fill="#05161B"/></g><g transform="translate(483.321,130.39999999999998) scale(0.06000,-0.06000)"><path d="M340.56787109375 1465.2618408203125V52.3406982421875Q340.56787109375 40.05047607421875 346.3328552246094 32.67034912109375Q352.09783935546875 25.29022216796875 364.56787109375 22.8201904296875L424.8265380859375 13.29022216796875Q430.7666015625 12.8201904296875 432.73663330078125 10.85015869140625Q434.7066650390625 8.880126953125 434.7066650390625 5.880126953125Q434.7066650390625 3.47003173828125 432.73663330078125 1.735015869140625Q430.7666015625 0 426.8265380859375 0H52.359619140625Q49.94952392578125 0 47.744476318359375 1.735015869140625Q45.5394287109375 3.47003173828125 45.5394287109375 5.880126953125Q45.5394287109375 8.35015869140625 48.56939697265625 10.85015869140625Q51.599365234375 13.35015869140625 58.599365234375 14.35015869140625L117.798095703125 22.8201904296875Q130.7381591796875 25.29022216796875 136.26812744140625 32.67034912109375Q141.798095703125 40.05047607421875 141.798095703125 51.28076171875V1375.5394287109375Q141.798095703125 1380.8895874023438 139.12301635742188 1384.0946350097656Q136.44793701171875 1387.2996826171875 129.56781005859375 1387.2996826171875H56.119873046875Q52.2996826171875 1387.2996826171875 50.32965087890625 1389.2697143554688Q48.359619140625 1391.23974609375 48.359619140625 1393.6498413085938Q48.359619140625 1397.119873046875 50.564666748046875 1398.5899047851562Q52.76971435546875 1400.0599365234375 56.23974609375 1401.0599365234375L312.81707763671875 1472.6719360351562Q321.1072998046875 1475.1419677734375 324.2823791503906 1475.6119995117188Q327.45745849609375 1476.08203125 330.8076171875 1476.08203125Q335.687744140625 1476.08203125 338.1278076171875 1472.8769836425781Q340.56787109375 1469.6719360351562 340.56787109375 1465.2618408203125Z" fill="#05161B"/></g><g transform="translate(512.601,130.39999999999998) scale(0.06000,-0.06000)"><path d="M113.91796875 841.041015625 22.958984375 857.8612060546875Q18.078857421875 859.3312377929688 16.10882568359375 861.0362854003906Q14.1387939453125 862.7413330078125 14.1387939453125 865.7413330078125Q14.1387939453125 868.2113647460938 16.10882568359375 869.9164123535156Q18.078857421875 871.6214599609375 20.0189208984375 871.6214599609375H110.6182861328125Q118.38800048828125 871.6214599609375 122.94793701171875 873.9463806152344Q127.50787353515625 876.2713012695312 130.8580322265625 881.8612060546875L291.4259033203125 1066.6624755859375Q296.24609375 1071.0725708007812 300.7413635253906 1073.7476501464844Q305.23663330078125 1076.4227294921875 309.646728515625 1076.4227294921875Q314.4669189453125 1076.4227294921875 317.3470458984375 1073.3075866699219Q320.2271728515625 1070.1924438476562 320.2271728515625 1063.962158203125V211.564697265625Q320.2271728515625 133.1640625 350.3722839355469 94.9637451171875Q380.51739501953125 56.763427734375 432.927490234375 56.763427734375Q452.51739501953125 56.763427734375 470.07733154296875 62.23345947265625Q487.63726806640625 67.7034912109375 502.69720458984375 79.5836181640625Q517.7571411132812 91.4637451171875 529.5520935058594 110.42904663085938Q541.3470458984375 129.39434814453125 549.406982421875 156.3848876953125Q551.406982421875 161.73504638671875 555.287109375 161.205078125Q559.167236328125 160.67510986328125 557.167236328125 154.2650146484375Q541.1072998046875 95.88330078125 514.2319030761719 57.962158203125Q487.35650634765625 20.041015625 447.0804748535156 1.61041259765625Q406.804443359375 -16.8201904296875 350.5426025390625 -16.8201904296875Q244.9400634765625 -16.8201904296875 186.48895263671875 33.69085693359375Q128.037841796875 84.201904296875 128.037841796875 189.1041259765625V821.9810791015625Q128.037841796875 830.4511108398438 125.24288940429688 835.2460632324219Q122.44793701171875 840.041015625 113.91796875 841.041015625ZM256.5047607421875 853.041015625 262.1451416015625 871.6214599609375H549.9874267578125Q554.9874267578125 871.6214599609375 556.9574584960938 870.1214599609375Q558.927490234375 868.6214599609375 558.927490234375 864.681396484375Q558.927490234375 859.80126953125 553.04736328125 856.421142578125Q547.167236328125 853.041015625 536.3470458984375 853.041015625Z" fill="#05161B"/></g><g transform="translate(548.541,130.39999999999998) scale(0.06000,-0.06000)"><path d="M440.0252685546875 0H361.75079345703125Q354.3406982421875 0 350.1955871582031 2.97003173828125Q346.05047607421875 5.9400634765625 343.5804443359375 13.35015869140625L78.88958740234375 816.681396484375Q73.2996826171875 834.9810791015625 63.08990478515625 842.5110473632812Q52.880126953125 850.041015625 35.5205078125 852.5110473632812L-6.18927001953125 859.3911743164062Q-10.5394287109375 860.3312377929688 -12.244476318359375 862.0662536621094Q-13.94952392578125 863.80126953125 -13.94952392578125 865.7413330078125Q-13.94952392578125 869.1514282226562 -12.00946044921875 870.3864440917969Q-10.06939697265625 871.6214599609375 -7.12933349609375 871.6214599609375H391.728759765625Q395.6688232421875 871.6214599609375 397.63885498046875 870.1214599609375Q399.60888671875 868.6214599609375 399.60888671875 865.2113647460938Q399.60888671875 863.2713012695312 397.63885498046875 861.80126953125Q395.6688232421875 860.3312377929688 390.25872802734375 858.8612060546875L335.89910888671875 850.3911743164062Q305.41961669921875 845.8612060546875 298.0347595214844 829.7713012695312Q290.64990234375 813.681396484375 299.23980712890625 786.32177734375L497.56787109375 172.03790283203125L457.25555419921875 70.80126953125L680.7445068359375 784.839111328125L695.7949829101562 775.6593017578125L456.19561767578125 11.35015869140625Q454.7255859375 5.9400634765625 450.31549072265625 2.97003173828125Q445.9053955078125 0 440.0252685546875 0ZM992.6183471679688 0H913.8139038085938Q907.4637451171875 0 902.7886657714844 3.764984130859375Q898.1135864257812 7.52996826171875 895.6435546875 14.9400634765625L635.8328247070312 809.2618408203125Q629.3028564453125 830.3817138671875 620.123046875 840.0315551757812Q610.9432373046875 849.681396484375 597.5836181640625 851.7413330078125L562.804443359375 858.3312377929688Q556.8643798828125 859.80126953125 554.3643798828125 861.5362854003906Q551.8643798828125 863.2713012695312 551.8643798828125 865.7413330078125Q551.8643798828125 871.6214599609375 559.7445068359375 871.6214599609375H951.7130126953125Q960.1231079101562 871.6214599609375 960.1231079101562 865.2113647460938Q960.1231079101562 862.7413330078125 958.153076171875 861.0063171386719Q956.1830444335938 859.2713012695312 950.2429809570312 857.80126953125L886.5237426757812 844.7413330078125Q856.3533935546875 838.8612060546875 850.413330078125 826.7413330078125Q844.4732666015625 814.6214599609375 851.4732666015625 793.2113647460938L1052.2208862304688 165.79815673828125L1006.728759765625 59.1419677734375L1218.6782836914062 737.1419677734375Q1234.9180297851562 787.80126953125 1222.9779663085938 815.5962219238281Q1211.0379028320312 843.3911743164062 1171.6782836914062 849.8612060546875L1119.369140625 858.8612060546875Q1113.9590454101562 860.3312377929688 1111.989013671875 861.80126953125Q1110.0189819335938 863.2713012695312 1110.0189819335938 865.7413330078125Q1110.0189819335938 869.1514282226562 1111.9590454101562 870.3864440917969Q1113.8991088867188 871.6214599609375 1117.369140625 871.6214599609375H1346.4984741210938Q1351.4984741210938 871.6214599609375 1353.468505859375 870.1214599609375Q1355.4385375976562 868.6214599609375 1355.4385375976562 865.2113647460938Q1355.4385375976562 862.7413330078125 1353.468505859375 861.0063171386719Q1351.4984741210938 859.2713012695312 1346.08837890625 857.80126953125L1322.0284423828125 849.8612060546875Q1293.8486328125 840.3911743164062 1272.7035217285156 812.1261901855469Q1251.5584106445312 783.8612060546875 1236.3786010742188 735.3817138671875L1009.8486328125 13.47003173828125Q1007.8486328125 6.47003173828125 1003.4385375976562 3.235015869140625Q999.0284423828125 0 992.6183471679688 0Z" fill="#05161B"/></g><g transform="translate(630.201,130.39999999999998) scale(0.06000,-0.06000)"><path d="M563.6088256835938 92.47003173828125V100.11041259765625L554.6182861328125 92.119873046875V708.7066650390625Q554.6182861328125 791.8738403320312 521.2791748046875 835.9274597167969Q487.9400634765625 879.9810791015625 422.7823486328125 879.9810791015625Q350.6246337890625 879.9810791015625 316.31549072265625 845.201904296875Q282.00634765625 810.4227294921875 282.00634765625 770.1829833984375V697.041015625Q282.00634765625 652.8296508789062 251.94009399414062 623.7933654785156Q221.87384033203125 594.757080078125 175.3817138671875 594.757080078125Q141.5804443359375 594.757080078125 119.32965087890625 616.2176513671875Q97.078857421875 637.67822265625 97.078857421875 680.4794921875Q97.078857421875 731.7697143554688 136.86434936523438 780.5851745605469Q176.64984130859375 829.400634765625 254.660888671875 861.041015625Q332.67193603515625 892.681396484375 446.05364990234375 892.681396484375Q601.48583984375 892.681396484375 677.906982421875 825.5709838867188Q754.328125 758.4605712890625 754.328125 637.5394287109375V110.681396484375Q754.328125 71.84228515625 767.2129821777344 55.07257080078125Q780.0978393554688 38.3028564453125 799.3375854492188 38.3028564453125Q817.5173950195312 38.3028564453125 831.7524108886719 49.27288818359375Q845.9874267578125 60.242919921875 848.927490234375 83.8233642578125Q849.3975219726562 87.23345947265625 850.8975219726562 88.46847534179688Q852.3975219726562 89.7034912109375 853.8675537109375 89.7034912109375Q856.3375854492188 89.7034912109375 857.3076171875 88.46847534179688Q858.2776489257812 87.23345947265625 858.2776489257812 83.8233642578125Q858.2776489257812 66.65301513671875 842.9921569824219 42.962158203125Q827.7066650390625 19.27130126953125 793.8754272460938 0.9605712890625Q760.044189453125 -17.35015869140625 704.201904296875 -17.35015869140625Q632 -17.35015869140625 597.8044128417969 12.97003173828125Q563.6088256835938 43.29022216796875 563.6088256835938 92.47003173828125ZM48.4984130859375 192.5804443359375Q48.4984130859375 297.15142822265625 135.21923828125 362.7366027832031Q221.9400634765625 428.32177734375 403.8233642578125 428.32177734375Q471.08203125 428.32177734375 514.8659362792969 415.3769836425781Q558.6498413085938 402.43218994140625 596.0189208984375 383.84228515625L589.19873046875 376.9022216796875Q551.9495239257812 394.08203125 512.1356506347656 404.3817138671875Q472.32177734375 414.681396484375 423.123046875 414.681396484375Q338.31549072265625 414.681396484375 293.5016174316406 363.3817138671875Q248.687744140625 312.08203125 248.687744140625 222.441650390625Q248.687744140625 135.09149169921875 291.3218078613281 87.40695190429688Q333.95587158203125 39.722412109375 402.9842529296875 39.722412109375Q450.36279296875 39.722412109375 496.3564758300781 60.727142333984375Q542.3501586914062 81.73187255859375 573.3091430664062 122.1009521484375L583.0693969726562 116.2208251953125Q538.8296508789062 51.17034912109375 462.6545715332031 16.645111083984375Q386.4794921875 -17.880126953125 298.599365234375 -17.880126953125Q186.7791748046875 -17.880126953125 117.6387939453125 40.9400634765625Q48.4984130859375 99.76025390625 48.4984130859375 192.5804443359375Z" fill="#05161B"/></g><g transform="translate(684.441,130.39999999999998) scale(0.06000,-0.06000)"><path d="M113.91796875 841.041015625 22.958984375 857.8612060546875Q18.078857421875 859.3312377929688 16.10882568359375 861.0362854003906Q14.1387939453125 862.7413330078125 14.1387939453125 865.7413330078125Q14.1387939453125 868.2113647460938 16.10882568359375 869.9164123535156Q18.078857421875 871.6214599609375 20.0189208984375 871.6214599609375H110.6182861328125Q118.38800048828125 871.6214599609375 122.94793701171875 873.9463806152344Q127.50787353515625 876.2713012695312 130.8580322265625 881.8612060546875L291.4259033203125 1066.6624755859375Q296.24609375 1071.0725708007812 300.7413635253906 1073.7476501464844Q305.23663330078125 1076.4227294921875 309.646728515625 1076.4227294921875Q314.4669189453125 1076.4227294921875 317.3470458984375 1073.3075866699219Q320.2271728515625 1070.1924438476562 320.2271728515625 1063.962158203125V211.564697265625Q320.2271728515625 133.1640625 350.3722839355469 94.9637451171875Q380.51739501953125 56.763427734375 432.927490234375 56.763427734375Q452.51739501953125 56.763427734375 470.07733154296875 62.23345947265625Q487.63726806640625 67.7034912109375 502.69720458984375 79.5836181640625Q517.7571411132812 91.4637451171875 529.5520935058594 110.42904663085938Q541.3470458984375 129.39434814453125 549.406982421875 156.3848876953125Q551.406982421875 161.73504638671875 555.287109375 161.205078125Q559.167236328125 160.67510986328125 557.167236328125 154.2650146484375Q541.1072998046875 95.88330078125 514.2319030761719 57.962158203125Q487.35650634765625 20.041015625 447.0804748535156 1.61041259765625Q406.804443359375 -16.8201904296875 350.5426025390625 -16.8201904296875Q244.9400634765625 -16.8201904296875 186.48895263671875 33.69085693359375Q128.037841796875 84.201904296875 128.037841796875 189.1041259765625V821.9810791015625Q128.037841796875 830.4511108398438 125.24288940429688 835.2460632324219Q122.44793701171875 840.041015625 113.91796875 841.041015625ZM256.5047607421875 853.041015625 262.1451416015625 871.6214599609375H549.9874267578125Q554.9874267578125 871.6214599609375 556.9574584960938 870.1214599609375Q558.927490234375 868.6214599609375 558.927490234375 864.681396484375Q558.927490234375 859.80126953125 553.04736328125 856.421142578125Q547.167236328125 853.041015625 536.3470458984375 853.041015625Z" fill="#05161B"/></g><g transform="translate(720.381,130.39999999999998) scale(0.06000,-0.06000)"><path d="M810.8770141601562 523.558349609375Q810.8770141601562 515.67822265625 805.7019348144531 510.798095703125Q800.52685546875 505.91796875 790.2965698242188 505.91796875H172.77606201171875V521.4384765625H595.9873657226562Q611.8674926757812 521.4384765625 611.8674926757812 539.19873046875Q611.8674926757812 709.4605712890625 560.7933654785156 793.78076171875Q509.71923828125 878.1009521484375 433.09149169921875 878.1009521484375Q367.40380859375 878.1009521484375 320.55523681640625 836.3517456054688Q273.7066650390625 794.6025390625 248.34231567382812 712.4132690429688Q222.97796630859375 630.2239990234375 222.97796630859375 509.3438720703125Q222.97796630859375 303.40380859375 310.4826965332031 197.77447509765625Q397.9874267578125 92.1451416015625 538.1072998046875 92.1451416015625Q639.0379028320312 92.1451416015625 710.6577758789062 150.02999877929688Q782.2776489257812 207.91485595703125 793.9369506835938 307.27447509765625Q794.4669189453125 311.21453857421875 796.1719665527344 312.71453857421875Q797.8770141601562 314.21453857421875 798.8770141601562 314.21453857421875Q801.3470458984375 314.21453857421875 803.3170776367188 312.4795227050781Q805.287109375 310.7445068359375 804.7571411132812 305.27447509765625Q797.3375854492188 211.9432373046875 747.787109375 138.4022216796875Q698.2366333007812 64.8612060546875 618.3154907226562 22.43060302734375Q538.3943481445312 -20 439.36279296875 -20Q319.79180908203125 -20 229.63092041015625 33.76025390625Q139.47003173828125 87.5205078125 89.00946044921875 186.01577758789062Q38.54888916015625 284.51104736328125 38.54888916015625 416.921142578125Q38.54888916015625 556.32177734375 90.39431762695312 663.5567932128906Q142.23974609375 770.7918090820312 236.43060302734375 831.7366027832031Q330.6214599609375 892.681396484375 456.95269775390625 892.681396484375Q564.6340942382812 892.681396484375 643.9700622558594 844.8359680175781Q723.3060302734375 796.9905395507812 767.0915222167969 713.6498413085938Q810.8770141601562 630.3091430664062 810.8770141601562 523.558349609375Z" fill="#05161B"/></g><g transform="translate(772.641,130.39999999999998) scale(0.06000,-0.06000)"><path d="M320.8076171875 485.9432373046875Q320.8076171875 620.0126342773438 358.4527282714844 710.1372375488281Q396.09783935546875 800.2618408203125 454.91802978515625 845.941650390625Q513.7382202148438 891.6214599609375 577.0284423828125 891.6214599609375Q648.9590454101562 891.6214599609375 687.9842834472656 847.6908569335938Q727.009521484375 803.76025390625 727.009521484375 725.558349609375Q727.009521484375 662.07568359375 697.4732360839844 630.7444458007812Q667.9369506835938 599.4132080078125 623.7949829101562 599.4132080078125Q582.4732055664062 599.4132080078125 561.3375549316406 622.8091125488281Q540.201904296875 646.2050170898438 538.32177734375 693.236572265625L537.3817138671875 722.757080078125Q536.9116821289062 756.4163818359375 523.6119995117188 773.0662231445312Q510.31231689453125 789.716064453125 478.1829833984375 789.716064453125Q442.2239990234375 789.716064453125 408.6451416015625 755.4069213867188Q375.0662841796875 721.0977783203125 353.287109375 652.3943176269531Q331.5079345703125 583.6908569335938 331.5079345703125 481.242919921875ZM331.5079345703125 871.7413330078125V531.9432373046875V57.041015625Q331.5079345703125 46.160888671875 337.97796630859375 38.075714111328125Q344.447998046875 29.99053955078125 356.447998046875 27.5205078125L455.5079345703125 12.8201904296875Q460.97796630859375 11.8201904296875 462.7129821777344 10.35015869140625Q464.447998046875 8.880126953125 464.447998046875 5.880126953125Q464.447998046875 3.47003173828125 462.2429504394531 1.735015869140625Q460.03790283203125 0 455.6278076171875 0H45.82965087890625Q41.94952392578125 0 39.214508056640625 2.235015869140625Q36.4794921875 4.47003173828125 36.4794921875 6.41009521484375Q36.4794921875 8.880126953125 39.684539794921875 11.085174560546875Q42.88958740234375 13.29022216796875 48.88958740234375 14.29022216796875L108.7381591796875 22.8201904296875Q121.67822265625 25.29022216796875 127.20819091796875 32.2003173828125Q132.7381591796875 39.11041259765625 132.7381591796875 48.4605712890625V790.4794921875Q132.7381591796875 796.2996826171875 130.298095703125 800.2097778320312Q127.8580322265625 804.119873046875 120.9779052734375 804.119873046875H45.1798095703125Q42.76971435546875 804.119873046875 40.564666748046875 806.0899047851562Q38.359619140625 808.0599365234375 38.359619140625 810Q38.359619140625 813 40.564666748046875 814.9400634765625Q42.76971435546875 816.880126953125 47.1798095703125 817.880126953125L304.2271728515625 880.5615234375Q311.1072998046875 882.5615234375 314.7524108886719 883.0315551757812Q318.39752197265625 883.5015869140625 321.7476806640625 883.5015869140625Q327.09783935546875 883.5015869140625 329.3028869628906 879.8265075683594Q331.5079345703125 876.1514282226562 331.5079345703125 871.7413330078125Z" fill="#05161B"/></g><g transform="translate(859.341,130.39999999999998) scale(0.06000,-0.06000)"><path d="M604.60009765625 -21.47998046875Q503.84033203125 -21.47998046875 440.0904541015625 6.239990234375Q376.340576171875 33.9599609375 341.640625 61.679931640625Q306.940673828125 89.39990234375 294.20068359375 89.39990234375Q289.380615234375 89.39990234375 280.200439453125 72.5299072265625Q271.020263671875 55.659912109375 260.4300537109375 33.659912109375Q249.83984375 11.659912109375 240.399658203125 -5.2100830078125Q230.95947265625 -22.080078125 225.359375 -22.080078125Q221.3193359375 -22.080078125 217.7392578125 -19.1500244140625Q214.1591796875 -16.219970703125 212.1591796875 -11.39990234375L128.3994140625 364.7216796875Q128.139404296875 368.541748046875 128.0294189453125 371.4317626953125Q127.91943359375 374.32177734375 129.439453125 375.32177734375Q131.699462890625 377.32177734375 134.5894775390625 375.561767578125Q137.4794921875 373.8017578125 138.99951171875 370.28173828125Q199.68017578125 229.40087890625 272.4703369140625 147.060546875Q345.260498046875 64.72021484375 426.8203125 29.18017578125Q508.380126953125 -6.35986328125 595.23974609375 -6.35986328125Q714.659423828125 -6.35986328125 786.3292236328125 62.119873046875Q857.9990234375 130.599609375 857.9990234375 253.359375Q857.9990234375 324.83935546875 826.4490966796875 388.0892333984375Q794.899169921875 451.339111328125 718.359375 508.5089111328125Q641.819580078125 565.6787109375 507.47998046875 615.95849609375Q358.23974609375 672.698486328125 269.819580078125 736.4285888671875Q181.3994140625 800.15869140625 142.559326171875 875.8388671875Q103.71923828125 951.51904296875 103.71923828125 1044.75927734375Q103.71923828125 1156.95947265625 158.139404296875 1241.379638671875Q212.5595703125 1325.7998046875 305.179931640625 1372.89990234375Q397.80029296875 1420 511.9208984375 1420Q607.820556640625 1420 668.400390625 1395.2501220703125Q728.980224609375 1370.500244140625 762.440185546875 1345.7503662109375Q795.900146484375 1321.00048828125 809.2001953125 1321.00048828125Q817.84033203125 1321.00048828125 833.400634765625 1345.900390625Q848.9609375 1370.80029296875 863.521240234375 1395.7001953125Q878.08154296875 1420.60009765625 883.24169921875 1420.60009765625Q886.28173828125 1420.60009765625 888.9517822265625 1419.06005859375Q891.621826171875 1417.52001953125 892.8818359375 1411.47998046875L994.52197265625 1020.35888671875Q995.0419921875 1017.27880859375 995.3919677734375 1014.518798828125Q995.741943359375 1011.7587890625 993.48193359375 1009.7587890625Q991.9619140625 1008.7587890625 989.0718994140625 1010.1488037109375Q986.181884765625 1011.538818359375 983.921875 1014.798828125Q920.381103515625 1161.179443359375 848.0108642578125 1246.399658203125Q775.640625 1331.619873046875 693.3907470703125 1368.2498779296875Q611.140869140625 1404.8798828125 519.201171875 1404.8798828125Q395.28173828125 1404.8798828125 314.18212890625 1329.860107421875Q233.08251953125 1254.84033203125 233.08251953125 1117.40087890625Q233.08251953125 1043.180908203125 264.1124267578125 978.06103515625Q295.142333984375 912.941162109375 370.0120849609375 855.5113525390625Q444.8818359375 798.08154296875 576.4013671875 747.32177734375Q732.16162109375 688.8017578125 820.841796875 623.8717041015625Q909.52197265625 558.941650390625 946.362060546875 486.04150390625Q983.2021484375 413.141357421875 983.2021484375 328.60107421875Q983.2021484375 230.80078125 938.5718994140625 151.4305419921875Q893.941650390625 72.060302734375 809.22119140625 25.2901611328125Q724.500732421875 -21.47998046875 604.60009765625 -21.47998046875Z" fill="#05161B"/></g><g transform="translate(926.001,130.39999999999998) scale(0.06000,-0.06000)"><path d="M127.359375 834.3203125 29.6796875 849.88037109375Q25.6396484375 851.140380859375 23.879638671875 852.5303955078125Q22.11962890625 853.92041015625 22.11962890625 856.92041015625Q22.11962890625 859.180419921875 23.879638671875 860.5704345703125Q25.6396484375 861.96044921875 27.15966796875 861.96044921875H121.95947265625Q131.619384765625 861.96044921875 136.599365234375 864.8104248046875Q141.579345703125 867.660400390625 143.87939453125 873.88037109375L252.36181640625 1050.28076171875Q255.921875 1054.060791015625 258.6319580078125 1056.2108154296875Q261.342041015625 1058.36083984375 265.1220703125 1058.36083984375Q268.68212890625 1058.36083984375 270.72216796875 1056.1907958984375Q272.76220703125 1054.020751953125 272.76220703125 1049.6806640625V180.4814453125Q272.76220703125 106.28125 302.1722412109375 70.18115234375Q331.582275390625 34.0810546875 383.3623046875 34.0810546875Q403.582275390625 34.0810546875 421.562255859375 39.341064453125Q439.542236328125 44.60107421875 455.022216796875 55.64111328125Q470.502197265625 66.68115234375 482.6121826171875 83.6512451171875Q494.72216796875 100.621337890625 503.2021484375 124.04150390625Q505.2021484375 128.341552734375 508.2421875 127.6015625Q511.2822265625 126.861572265625 509.2822265625 121.08154296875Q492.80224609375 74.041015625 468.5521240234375 43.6806640625Q444.302001953125 13.3203125 410.8516845703125 -1.119873046875Q377.4013671875 -15.56005859375 333.32080078125 -15.56005859375Q244.52001953125 -15.56005859375 193.419677734375 28.020263671875Q142.3193359375 71.6005859375 142.3193359375 161.80126953125V814.84033203125Q142.3193359375 823.100341796875 139.2093505859375 828.2103271484375Q136.099365234375 833.3203125 127.359375 834.3203125ZM225.00146484375 846.3203125 228.12158203125 861.96044921875H500.84228515625Q505.84228515625 861.96044921875 507.602294921875 860.46044921875Q509.3623046875 858.96044921875 509.3623046875 855.4404296875Q509.3623046875 851.400390625 504.322265625 848.8603515625Q499.2822265625 846.3203125 489.72216796875 846.3203125Z" fill="#05161B"/></g><g transform="translate(959.241,130.39999999999998) scale(0.06000,-0.06000)"><path d="M701.259521484375 35.31982421875V152.240234375V156.2802734375V791.23974609375Q701.259521484375 795.539794921875 699.1094970703125 798.4298095703125Q696.95947265625 801.31982421875 690.91943359375 801.31982421875H603.820068359375Q601.260009765625 801.31982421875 599.5 803.079833984375Q597.739990234375 804.83984375 597.739990234375 806.619873046875Q597.739990234375 809.8798828125 599.6300048828125 811.139892578125Q601.52001953125 812.39990234375 604.780029296875 813.39990234375L812.84228515625 871.780517578125Q819.40234375 874.04052734375 822.182373046875 874.300537109375Q824.96240234375 874.560546875 827.262451171875 874.560546875Q831.302490234375 874.560546875 833.322509765625 871.6705322265625Q835.342529296875 868.780517578125 835.342529296875 865.00048828125V47.72021484375Q835.342529296875 36.900146484375 841.2125244140625 30.360107421875Q847.08251953125 23.820068359375 859.342529296875 21.56005859375L928.422119140625 11.820068359375Q933.942138671875 11.56005859375 935.7021484375 9.800048828125Q937.462158203125 8.0400390625 937.462158203125 5.0400390625Q937.462158203125 3.260009765625 935.7021484375 1.6300048828125Q933.942138671875 0 930.422119140625 0H729.699462890625Q716.219482421875 0 708.739501953125 8.5899658203125Q701.259521484375 17.179931640625 701.259521484375 35.31982421875ZM141.79931640625 247.599609375V791.23974609375Q141.79931640625 795.539794921875 139.279296875 798.4298095703125Q136.75927734375 801.31982421875 129.979248046875 801.31982421875H42.8798828125Q40.31982421875 801.31982421875 38.559814453125 803.079833984375Q36.7998046875 804.83984375 36.7998046875 806.619873046875Q36.7998046875 809.8798828125 38.6898193359375 811.139892578125Q40.579833984375 812.39990234375 43.83984375 813.39990234375L253.382080078125 871.780517578125Q260.2021484375 874.04052734375 262.8521728515625 874.300537109375Q265.502197265625 874.560546875 267.80224609375 874.560546875Q271.84228515625 874.560546875 273.8623046875 871.6705322265625Q275.88232421875 868.780517578125 275.88232421875 865.00048828125V260.43994140625Q275.88232421875 149.12060546875 328.98193359375 97.680908203125Q382.08154296875 46.2412109375 466.0810546875 46.2412109375Q518.28076171875 46.2412109375 572.46044921875 69.341064453125Q626.64013671875 92.44091796875 684.19970703125 145.5205078125L716.27978515625 174.820556640625L722.8798828125 167.96044921875L690.27978515625 138.140380859375Q593.819580078125 50.020263671875 521.519287109375 17.9700927734375Q449.218994140625 -14.080078125 381.138916015625 -14.080078125Q278.51904296875 -14.080078125 210.1591796875 50.4298095703125Q141.79931640625 114.939697265625 141.79931640625 247.599609375Z" fill="#05161B"/></g><g transform="translate(1018.341,130.39999999999998) scale(0.06000,-0.06000)"><path d="M701.099365234375 128.599609375V132.379638671875V1379.31982421875Q701.099365234375 1383.619873046875 698.9493408203125 1386.5098876953125Q696.79931640625 1389.39990234375 690.75927734375 1389.39990234375H603.659912109375Q601.099853515625 1389.39990234375 599.33984375 1391.159912109375Q597.579833984375 1392.919921875 597.579833984375 1394.699951171875Q597.579833984375 1397.9599609375 599.4698486328125 1399.219970703125Q601.35986328125 1400.47998046875 604.619873046875 1401.47998046875L812.68212890625 1459.860595703125Q819.502197265625 1462.12060546875 822.1522216796875 1462.380615234375Q824.80224609375 1462.640625 827.102294921875 1462.640625Q831.142333984375 1462.640625 833.162353515625 1459.7506103515625Q835.182373046875 1456.860595703125 835.182373046875 1453.08056640625V47.72021484375Q835.182373046875 36.900146484375 841.0523681640625 30.360107421875Q846.92236328125 23.820068359375 859.182373046875 21.56005859375L928.261962890625 11.820068359375Q933.781982421875 11.56005859375 935.5419921875 9.800048828125Q937.302001953125 8.0400390625 937.302001953125 5.0400390625Q937.302001953125 3.260009765625 935.5419921875 1.6300048828125Q933.781982421875 0 930.261962890625 0H729.539306640625Q716.059326171875 0 708.579345703125 8.219970703125Q701.099365234375 16.43994140625 701.099365234375 35.31982421875ZM53.499755859375 410.340087890625Q53.499755859375 558.380126953125 109.73974609375 664.0902099609375Q165.979736328125 769.80029296875 257.31982421875 825.88037109375Q348.659912109375 881.96044921875 454.940185546875 881.96044921875Q558.780029296875 881.96044921875 631.8697509765625 834.8507080078125Q704.95947265625 787.740966796875 749.539306640625 714.1611328125L736.859130859375 708.0810546875Q699.3994140625 776.720703125 633.3099365234375 819.660400390625Q567.220458984375 862.60009765625 477.901123046875 862.60009765625Q399.5615234375 862.60009765625 333.9619140625 814.040283203125Q268.3623046875 765.48046875 228.7525634765625 668.4305419921875Q189.142822265625 571.380615234375 189.142822265625 425.540283203125Q189.142822265625 294.300048828125 224.0125732421875 203.2301025390625Q258.88232421875 112.16015625 320.0718994140625 64.80029296875Q381.261474609375 17.4404296875 459.740966796875 17.4404296875Q516.28076171875 17.4404296875 582.2503662109375 47.9903564453125Q648.219970703125 78.540283203125 711.259521484375 152L718.379638671875 144.35986328125Q634 50.080078125 563.6900634765625 15.0400390625Q493.380126953125 -20 412.780029296875 -20Q311.579833984375 -20 230.1497802734375 32.97998046875Q148.7197265625 85.9599609375 101.1097412109375 182.8499755859375Q53.499755859375 279.739990234375 53.499755859375 410.340087890625Z" fill="#05161B"/></g><g transform="translate(1076.661,130.39999999999998) scale(0.06000,-0.06000)"><path d="M285.88232421875 866.04052734375V47.72021484375Q285.88232421875 36.900146484375 291.7523193359375 30.360107421875Q297.622314453125 23.820068359375 309.88232421875 21.56005859375L378.9619140625 11.820068359375Q384.48193359375 11.56005859375 386.241943359375 9.800048828125Q388.001953125 8.0400390625 388.001953125 5.0400390625Q388.001953125 3.260009765625 386.241943359375 1.6300048828125Q384.48193359375 0 380.9619140625 0H52.27978515625Q50.499755859375 0 48.6097412109375 1.6300048828125Q46.7197265625 3.260009765625 46.7197265625 5.0400390625Q46.7197265625 6.56005859375 48.479736328125 7.9500732421875Q50.23974609375 9.340087890625 54.27978515625 10.340087890625L127.79931640625 21.56005859375Q140.3193359375 23.820068359375 146.059326171875 30.360107421875Q151.79931640625 36.900146484375 151.79931640625 46.240234375V792.27978515625Q151.79931640625 796.579833984375 149.6492919921875 799.4698486328125Q147.499267578125 802.35986328125 141.459228515625 802.35986328125H54.35986328125Q51.7998046875 802.35986328125 50.039794921875 804.119873046875Q48.27978515625 805.8798828125 48.27978515625 807.659912109375Q48.27978515625 810.919921875 50.1697998046875 812.179931640625Q52.059814453125 813.43994140625 55.31982421875 814.43994140625L263.382080078125 872.820556640625Q270.2021484375 875.08056640625 272.8521728515625 875.340576171875Q275.502197265625 875.6005859375 277.80224609375 875.6005859375Q281.84228515625 875.6005859375 283.8623046875 872.7105712890625Q285.88232421875 869.820556640625 285.88232421875 866.04052734375ZM213.36083984375 1060.618896484375Q174.16015625 1060.618896484375 149.7197265625 1088.6492919921875Q125.279296875 1116.6796875 125.279296875 1157.020263671875Q125.279296875 1198.100830078125 150.459716796875 1226.1312255859375Q175.64013671875 1254.16162109375 213.36083984375 1254.16162109375Q252.821533203125 1254.16162109375 278.02197265625 1225.76123046875Q303.222412109375 1197.36083984375 303.222412109375 1157.020263671875Q303.222412109375 1116.6796875 277.6519775390625 1088.6492919921875Q252.08154296875 1060.618896484375 213.36083984375 1060.618896484375Z" fill="#05161B"/></g><g transform="translate(1103.121,130.39999999999998) scale(0.06000,-0.06000)"><path d="M476.500732421875 881.96044921875Q598.781005859375 881.96044921875 694.22119140625 824.180419921875Q789.661376953125 766.400390625 845.00146484375 663.9703369140625Q900.341552734375 561.540283203125 900.341552734375 427.72021484375Q900.341552734375 294.68017578125 844.3514404296875 193.880126953125Q788.361328125 93.080078125 690.901123046875 36.5400390625Q593.44091796875 -20 467.900634765625 -20Q345.620361328125 -20 250.920166015625 36.4100341796875Q156.219970703125 92.820068359375 102.35986328125 193.6201171875Q48.499755859375 294.420166015625 48.499755859375 427.72021484375Q48.499755859375 561.500244140625 102.159912109375 663.560302734375Q155.820068359375 765.620361328125 252.30029296875 823.7904052734375Q348.780517578125 881.96044921875 476.500732421875 881.96044921875ZM519.44091796875 -5.919921875Q602.80029296875 0.56005859375 660.999755859375 57.1099853515625Q719.19921875 113.659912109375 745.2088623046875 215.0299072265625Q771.218505859375 316.39990234375 758.098388671875 456.820068359375Q744.978271484375 599.460205078125 700.718505859375 693.6302490234375Q656.458740234375 787.80029296875 586.979248046875 831.9302978515625Q517.499755859375 876.060302734375 428.700439453125 869.3203125Q340.421142578125 862.580322265625 282.5916748046875 804.180419921875Q224.76220703125 745.780517578125 201.2325439453125 644.300537109375Q177.702880859375 542.820556640625 190.56298828125 405.3603515625Q203.68310546875 268.64013671875 249.2928466796875 174.10009765625Q294.902587890625 79.56005859375 364.7520751953125 33.580078125Q434.6015625 -12.39990234375 519.44091796875 -5.919921875Z" fill="#05161B"/></g></svg>